<svg width="19" height="195" viewBox="0 0 19 195" fill="none" xmlns="http://www.w3.org/2000/svg">
<path d="M6.12353 104.844C5.6579 104.894 5.29535 105.103 5.03588 105.473C4.77641 105.839 4.64667 106.316 4.64667 106.902C4.64667 107.314 4.70887 107.668 4.83328 107.963C4.95768 108.258 5.12652 108.484 5.33978 108.64C5.55305 108.797 5.79653 108.876 6.07022 108.88C6.2977 108.88 6.49497 108.829 6.66203 108.725C6.82909 108.619 6.97126 108.475 7.08856 108.294C7.2023 108.112 7.29827 107.911 7.37647 107.691C7.45467 107.471 7.52042 107.249 7.57374 107.025L7.82966 106.001C7.92563 105.589 8.05536 105.192 8.21887 104.812C8.38237 104.428 8.58853 104.085 8.83734 103.783C9.08615 103.477 9.3865 103.236 9.73838 103.058C10.0903 102.88 10.5026 102.791 10.9753 102.791C11.6151 102.791 12.1785 102.955 12.6655 103.282C13.1489 103.609 13.5274 104.082 13.8011 104.7C14.0712 105.315 14.2063 106.06 14.2063 106.934C14.2063 107.784 14.0748 108.521 13.8118 109.147C13.5487 109.769 13.1648 110.256 12.6601 110.607C12.1554 110.956 11.5405 111.144 10.8154 111.173L10.8154 109.227C11.1957 109.198 11.512 109.081 11.7644 108.875C12.0168 108.669 12.2052 108.4 12.3296 108.07C12.454 107.736 12.5162 107.362 12.5162 106.95C12.5162 106.52 12.4522 106.143 12.3242 105.82C12.1927 105.493 12.0114 105.237 11.7804 105.052C11.5458 104.867 11.2721 104.773 10.9593 104.769C10.675 104.773 10.4404 104.856 10.2556 105.02C10.0672 105.183 9.91077 105.413 9.78637 105.708C9.65841 105.999 9.54467 106.34 9.44514 106.731L9.12525 107.974C8.89421 108.873 8.5441 109.584 8.07491 110.106C7.60218 110.625 6.97482 110.885 6.19285 110.885C5.54949 110.885 4.98612 110.711 4.50272 110.362C4.01931 110.01 3.64432 109.532 3.37774 108.928C3.1076 108.324 2.97254 107.64 2.97254 106.875C2.97254 106.1 3.1076 105.422 3.37774 104.839C3.64432 104.252 4.01576 103.792 4.49205 103.458C4.96479 103.124 5.50862 102.951 6.12353 102.941L6.12353 104.844ZM6.80598 91.6815L6.80598 93.6756C6.47898 93.7324 6.18929 93.8373 5.93693 93.9901C5.68101 94.143 5.46419 94.3331 5.28647 94.5606C5.10874 94.7881 4.97545 95.0476 4.88659 95.339C4.79418 95.6269 4.74797 95.9379 4.74797 96.2721C4.74797 96.8656 4.89726 97.3917 5.19583 97.8502C5.49085 98.3087 5.92449 98.6677 6.49675 98.9272C7.06546 99.1867 7.76035 99.3164 8.58142 99.3164C9.41671 99.3164 10.1205 99.1867 10.6927 98.9272C11.2615 98.6642 11.6915 98.3052 11.983 97.8502C12.2709 97.3917 12.4149 96.8674 12.4149 96.2774C12.4149 95.9504 12.3722 95.6447 12.2869 95.3603C12.198 95.0724 12.0683 94.8147 11.8977 94.5873C11.7271 94.3562 11.5174 94.1625 11.2686 94.0061C11.0198 93.8462 10.7354 93.736 10.4155 93.6756L10.4262 91.6815C10.9451 91.7562 11.4321 91.9179 11.887 92.1667C12.342 92.412 12.7436 92.7336 13.092 93.1317C13.4368 93.5298 13.7069 93.9954 13.9024 94.5286C14.0943 95.0618 14.1903 95.6536 14.1903 96.304C14.1903 97.2637 13.9681 98.1204 13.5238 98.8739C13.0795 99.6274 12.438 100.221 11.5991 100.655C10.7603 101.088 9.75438 101.305 8.58142 101.305C7.4049 101.305 6.399 101.087 5.56371 100.649C4.72487 100.212 4.08329 99.6168 3.63899 98.8632C3.19469 98.1097 2.97254 97.2566 2.97254 96.304C2.97254 95.6962 3.05784 95.1311 3.22845 94.6086C3.39907 94.0861 3.64965 93.6205 3.98022 93.2117C4.30722 92.8029 4.70887 92.467 5.18517 92.204C5.6579 91.9374 6.19818 91.7633 6.80598 91.6815ZM14.041 89.8701L3.12182 89.8701L3.12182 85.7754C3.12182 84.9366 3.26755 84.2328 3.55902 83.6641C3.85048 83.0918 4.25924 82.6599 4.78529 82.3685C5.30779 82.0735 5.91738 81.926 6.61404 81.926C7.31427 81.926 7.92207 82.0752 8.43746 82.3738C8.9493 82.6688 9.34562 83.1042 9.62642 83.6801C9.90366 84.2559 10.0423 84.9632 10.0423 85.8021L10.0423 88.7185L8.40014 88.7185L8.40014 86.0686C8.40014 85.5781 8.33261 85.1765 8.19754 84.8637C8.05892 84.5509 7.85809 84.3199 7.59506 84.1706C7.32848 84.0177 7.00148 83.9413 6.61404 83.9413C6.22661 83.9413 5.89605 84.0177 5.62236 84.1706C5.34511 84.3234 5.1354 84.5562 4.99323 84.869C4.84749 85.1818 4.77463 85.5852 4.77463 86.0793L4.77463 87.8921L14.041 87.8921L14.041 89.8701ZM9.09325 84.2292L14.041 81.5261L14.041 83.7334L9.09326 86.3885L9.09325 84.2292ZM8.58142 70.3483C9.75793 70.3483 10.7656 70.5687 11.6045 71.0094C12.4397 71.4466 13.0795 72.0438 13.5238 72.8009C13.9681 73.5544 14.1903 74.4092 14.1903 75.3654C14.1903 76.3215 13.9681 77.1781 13.5238 77.9352C13.076 78.6888 12.4344 79.2859 11.5991 79.7267C10.7603 80.1639 9.75438 80.3824 8.58142 80.3824C7.4049 80.3824 6.399 80.1639 5.56371 79.7267C4.72487 79.2859 4.08329 78.6888 3.63899 77.9352C3.19469 77.1781 2.97253 76.3215 2.97253 75.3654C2.97253 74.4092 3.19469 73.5544 3.63899 72.8009C4.08329 72.0438 4.72487 71.4466 5.56371 71.0094C6.399 70.5687 7.4049 70.3483 8.58142 70.3483ZM8.58142 72.337C7.75324 72.337 7.05479 72.4667 6.48608 72.7262C5.91382 72.9821 5.48196 73.3376 5.1905 73.7925C4.89548 74.2475 4.74797 74.7718 4.74797 75.3654C4.74797 75.959 4.89548 76.4832 5.1905 76.9382C5.48196 77.3932 5.91382 77.7504 6.48608 78.0099C7.05479 78.2658 7.75324 78.3937 8.58142 78.3937C9.4096 78.3937 10.1098 78.2658 10.6821 78.0099C11.2508 77.7504 11.6827 77.3932 11.9777 76.9382C12.2691 76.4832 12.4149 75.959 12.4149 75.3654C12.4149 74.7718 12.2691 74.2475 11.9777 73.7925C11.6827 73.3376 11.2508 72.9821 10.6821 72.7262C10.1098 72.4667 9.4096 72.337 8.58142 72.337ZM14.041 68.4782L3.12182 68.4782L3.12182 66.5002L12.3829 66.5002L12.3829 61.6911L14.041 61.6911L14.041 68.4782ZM14.041 59.9743L3.12182 59.9743L3.12182 57.9962L12.3829 57.9962L12.3829 53.1871L14.041 53.1871L14.041 59.9743ZM14.041 44.046L14.041 47.7462L3.12182 47.7462L3.12182 43.9714C3.12182 42.8873 3.34042 41.956 3.77761 41.1776C4.21125 40.3956 4.83505 39.7949 5.64902 39.3755C6.46298 38.9561 7.43689 38.7464 8.57075 38.7464C9.70817 38.7464 10.6856 38.9578 11.5032 39.3808C12.3207 39.8002 12.948 40.4063 13.3852 41.1989C13.8224 41.988 14.041 42.937 14.041 44.046ZM12.3296 45.7681L12.3296 44.142C12.3296 43.3813 12.1909 42.7469 11.9137 42.2386C11.6329 41.7303 11.2152 41.3482 10.6608 41.0923C10.1027 40.8364 9.40604 40.7084 8.57075 40.7084C7.73546 40.7084 7.04235 40.8364 6.49141 41.0923C5.93692 41.3482 5.52283 41.7267 5.24914 42.2279C4.9719 42.7255 4.83328 43.344 4.83328 44.0833L4.83328 45.7681L12.3296 45.7681ZM8.58142 27.1101C9.75793 27.1101 10.7656 27.3304 11.6045 27.7712C12.4397 28.2084 13.0795 28.8055 13.5238 29.5626C13.9681 30.3162 14.1903 31.171 14.1903 32.1271C14.1903 33.0833 13.9681 33.9399 13.5238 34.697C13.076 35.4505 12.4344 36.0477 11.5991 36.4884C10.7603 36.9256 9.75438 37.1442 8.58142 37.1442C7.4049 37.1442 6.399 36.9256 5.56371 36.4884C4.72486 36.0477 4.08329 35.4505 3.63899 34.697C3.19468 33.9399 2.97253 33.0833 2.97253 32.1271C2.97253 31.171 3.19468 30.3162 3.63899 29.5626C4.08329 28.8055 4.72486 28.2084 5.56371 27.7712C6.399 27.3304 7.4049 27.1101 8.58142 27.1101ZM8.58142 29.0988C7.75323 29.0988 7.05479 29.2285 6.48608 29.488C5.91382 29.7439 5.48196 30.0993 5.19049 30.5543C4.89548 31.0093 4.74797 31.5335 4.74797 32.1271C4.74797 32.7207 4.89548 33.245 5.19049 33.7C5.48196 34.1549 5.91382 34.5121 6.48608 34.7716C7.05479 35.0275 7.75323 35.1555 8.58142 35.1555C9.4096 35.1555 10.1098 35.0275 10.6821 34.7716C11.2508 34.5121 11.6827 34.1549 11.9777 33.7C12.2691 33.245 12.4149 32.7207 12.4149 32.1271C12.4149 31.5335 12.2691 31.0093 11.9777 30.5543C11.6827 30.0993 11.2508 29.7439 10.6821 29.488C10.1098 29.2285 9.4096 29.0988 8.58142 29.0988ZM14.041 23.2206L3.12182 26.3023L3.12182 24.175L11.1459 22.2076L11.1459 22.1063L3.12182 20.0057L3.12182 18.0703L11.1513 15.9643L11.1513 15.8683L3.12182 13.9009L3.12182 11.7736L14.041 14.8553L14.041 16.8067L6.37945 18.9926L6.37945 19.0779L14.041 21.2693L14.041 23.2206ZM3.12182 1.4289L14.041 1.4289L14.041 3.18834L6.60338 8.33337L6.60338 8.42401L14.041 8.42401L14.041 10.402L3.12182 10.402L3.12182 8.63194L10.5648 3.49224L10.5648 3.39627L3.12182 3.39627L3.12182 1.4289Z" fill="#6C6C6C"/>
<path d="M8.25357 193.726C8.69332 194.166 9.40629 194.166 9.84603 193.726L17.0121 186.56C17.4519 186.12 17.4519 185.407 17.0121 184.968C16.5724 184.528 15.8594 184.528 15.4197 184.968L9.0498 191.338L2.67995 184.968C2.2402 184.528 1.52723 184.528 1.08749 184.968C0.64774 185.407 0.64774 186.12 1.08749 186.56L8.25357 193.726ZM7.92376 151.642L7.92376 192.93L10.1758 192.93L10.1758 151.642L7.92376 151.642Z" fill="#6C6C6C"/>
</svg>
